<svg xmlns="http://www.w3.org/2000/svg" xmlns:svg="http://www.w3.org/2000/svg" id="svg8" width="512" height="512" version="1.1" viewBox="0 0 135.467 135.467"><metadata id="metadata5"/><g id="layer1" display="inline" transform="translate(0,-161.53334)"><path id="path3722" fill="#609926" fill-opacity="1" stroke="#428f29" stroke-dasharray="none" stroke-linecap="butt" stroke-linejoin="miter" stroke-miterlimit="4" stroke-opacity="1" stroke-width="1" d="m 27.709937,195.15095 c -9.546573,-0.0272 -22.3392732,6.79805 -21.6317552,23.90397 1.105534,26.72889 25.4565952,29.20839 35.1916502,29.42301 1.068023,5.01357 12.521798,22.30563 21.001818,23.21667 h 37.15277 c 22.27763,-1.66785 38.9607,-75.75671 26.59321,-76.03825 -46.781583,2.47691 -49.995146,2.13838 -88.599758,0 -2.495053,-0.0266 -5.972321,-0.49474 -9.707935,-0.5054 z m 2.491319,9.45886 c 1.351378,13.69267 3.555849,21.70359 8.018216,33.94345 -11.382872,-1.50473 -21.069822,-5.22443 -22.851515,-19.10984 -0.950962,-7.4112 2.390428,-15.16769 14.833299,-14.83361 z"/></g><g id="layer2" display="inline"><rect id="rect4599" width="34.762" height="34.762" x="87.509" y="18.292" fill="#fff" fill-opacity="1" stroke="none" stroke-opacity="1" stroke-width=".248" display="inline" ry="5.483" transform="rotate(25.914715)"/><path id="path4525" fill="#fff" fill-opacity="1" stroke="none" stroke-linecap="butt" stroke-linejoin="miter" stroke-opacity="1" stroke-width=".266" d="m 79.804947,57.359056 3.241146,1.609954 V 35.255731 h -3.262698 z" display="inline"/></g><g id="layer3" display="inline"><g id="g4539" display="inline"><circle id="path4606" cx="49.065" cy="90.078" r="3.475" fill="#609926" fill-opacity="1" stroke="none" stroke-opacity="1" stroke-width=".265" transform="rotate(-19.796137)"/><circle id="path4606-3" cx="36.81" cy="102.105" r="3.475" fill="#609926" fill-opacity="1" stroke="none" stroke-opacity="1" stroke-width=".265" transform="rotate(-19.796137)"/><circle id="path4606-1" cx="46.484" cy="111.439" r="3.475" fill="#609926" fill-opacity="1" stroke="none" stroke-opacity="1" stroke-width=".265" transform="rotate(-19.796137)"/><rect id="rect4629-8" width="2.673" height="27.261" x="97.333" y="18.062" fill="#609926" fill-opacity="1" stroke="none" stroke-opacity="1" stroke-width=".274" transform="rotate(26.024158)"/><path id="path4514" fill="none" stroke="#609926" stroke-dasharray="none" stroke-linecap="butt" stroke-linejoin="miter" stroke-miterlimit="4" stroke-opacity="1" stroke-width="2.68" d="m 76.558096,68.116343 c 12.97589,6.395378 13.012989,4.101862 4.890858,20.907244"/></g></g></svg>